<mxfile host="app.diagrams.net" modified="2023-04-03T13:41:06.557Z" agent="Mozilla/5.0 (Macintosh; Intel Mac OS X 10_15_7) AppleWebKit/537.36 (KHTML, like Gecko) Chrome/111.0.0.0 Safari/537.36" etag="qegHIYg35ylvZJMUWfwh" version="21.1.4" type="github">
  <diagram name="第 1 页" id="RKMw0VFzwhU5_ZIt3xhK">
    <mxGraphModel dx="1179" dy="647" grid="1" gridSize="10" guides="1" tooltips="1" connect="1" arrows="1" fold="1" page="1" pageScale="1" pageWidth="827" pageHeight="1169" math="0" shadow="0">
      <root>
        <mxCell id="0" />
        <mxCell id="1" parent="0" />
        <mxCell id="Sv3YUqrAasHjxWlkc90t-3" value="" style="edgeStyle=orthogonalEdgeStyle;rounded=0;orthogonalLoop=1;jettySize=auto;html=1;fillColor=#dae8fc;strokeColor=#6c8ebf;fontSize=14;" edge="1" parent="1" source="Sv3YUqrAasHjxWlkc90t-1" target="Sv3YUqrAasHjxWlkc90t-2">
          <mxGeometry relative="1" as="geometry" />
        </mxCell>
        <mxCell id="Sv3YUqrAasHjxWlkc90t-1" value="土地预审" style="rounded=1;whiteSpace=wrap;html=1;fillColor=#dae8fc;strokeColor=#6c8ebf;fontSize=14;" vertex="1" parent="1">
          <mxGeometry x="200" y="20" width="120" height="60" as="geometry" />
        </mxCell>
        <mxCell id="Sv3YUqrAasHjxWlkc90t-5" value="" style="edgeStyle=orthogonalEdgeStyle;rounded=0;orthogonalLoop=1;jettySize=auto;html=1;fillColor=#dae8fc;strokeColor=#6c8ebf;fontSize=14;" edge="1" parent="1" source="Sv3YUqrAasHjxWlkc90t-2" target="Sv3YUqrAasHjxWlkc90t-4">
          <mxGeometry relative="1" as="geometry" />
        </mxCell>
        <mxCell id="Sv3YUqrAasHjxWlkc90t-2" value="征地" style="rounded=1;whiteSpace=wrap;html=1;fillColor=#dae8fc;strokeColor=#6c8ebf;fontSize=14;" vertex="1" parent="1">
          <mxGeometry x="200" y="120" width="120" height="60" as="geometry" />
        </mxCell>
        <mxCell id="Sv3YUqrAasHjxWlkc90t-9" value="" style="edgeStyle=orthogonalEdgeStyle;rounded=0;orthogonalLoop=1;jettySize=auto;html=1;fillColor=#dae8fc;strokeColor=#6c8ebf;fontSize=14;" edge="1" parent="1" source="Sv3YUqrAasHjxWlkc90t-4" target="Sv3YUqrAasHjxWlkc90t-8">
          <mxGeometry relative="1" as="geometry" />
        </mxCell>
        <mxCell id="Sv3YUqrAasHjxWlkc90t-12" style="edgeStyle=orthogonalEdgeStyle;rounded=0;orthogonalLoop=1;jettySize=auto;html=1;exitX=0;exitY=0.5;exitDx=0;exitDy=0;entryX=0.5;entryY=0;entryDx=0;entryDy=0;fillColor=#dae8fc;strokeColor=#6c8ebf;fontSize=14;" edge="1" parent="1" source="Sv3YUqrAasHjxWlkc90t-4" target="Sv3YUqrAasHjxWlkc90t-10">
          <mxGeometry relative="1" as="geometry" />
        </mxCell>
        <mxCell id="Sv3YUqrAasHjxWlkc90t-13" style="edgeStyle=orthogonalEdgeStyle;rounded=0;orthogonalLoop=1;jettySize=auto;html=1;exitX=1;exitY=0.5;exitDx=0;exitDy=0;entryX=0.5;entryY=0;entryDx=0;entryDy=0;fillColor=#dae8fc;strokeColor=#6c8ebf;fontSize=14;" edge="1" parent="1" source="Sv3YUqrAasHjxWlkc90t-4" target="Sv3YUqrAasHjxWlkc90t-11">
          <mxGeometry relative="1" as="geometry" />
        </mxCell>
        <mxCell id="Sv3YUqrAasHjxWlkc90t-4" value="转用手续" style="rounded=1;whiteSpace=wrap;html=1;fillColor=#dae8fc;strokeColor=#6c8ebf;fontSize=14;" vertex="1" parent="1">
          <mxGeometry x="200" y="220" width="120" height="60" as="geometry" />
        </mxCell>
        <mxCell id="Sv3YUqrAasHjxWlkc90t-15" value="" style="edgeStyle=orthogonalEdgeStyle;rounded=0;orthogonalLoop=1;jettySize=auto;html=1;fillColor=#dae8fc;strokeColor=#6c8ebf;fontSize=14;" edge="1" parent="1" source="Sv3YUqrAasHjxWlkc90t-8" target="Sv3YUqrAasHjxWlkc90t-14">
          <mxGeometry relative="1" as="geometry" />
        </mxCell>
        <mxCell id="Sv3YUqrAasHjxWlkc90t-8" value="补偿安置方案公告" style="rounded=1;whiteSpace=wrap;html=1;fillColor=#dae8fc;strokeColor=#6c8ebf;fontSize=14;" vertex="1" parent="1">
          <mxGeometry x="200" y="310" width="120" height="60" as="geometry" />
        </mxCell>
        <mxCell id="Sv3YUqrAasHjxWlkc90t-27" style="edgeStyle=orthogonalEdgeStyle;rounded=0;orthogonalLoop=1;jettySize=auto;html=1;exitX=0.5;exitY=1;exitDx=0;exitDy=0;entryX=0.5;entryY=0;entryDx=0;entryDy=0;fillColor=#dae8fc;strokeColor=#6c8ebf;fontSize=14;" edge="1" parent="1" source="Sv3YUqrAasHjxWlkc90t-10" target="Sv3YUqrAasHjxWlkc90t-14">
          <mxGeometry relative="1" as="geometry" />
        </mxCell>
        <mxCell id="Sv3YUqrAasHjxWlkc90t-10" value="征用公告" style="rounded=1;whiteSpace=wrap;html=1;fillColor=#dae8fc;strokeColor=#6c8ebf;fontSize=14;" vertex="1" parent="1">
          <mxGeometry x="30" y="310" width="120" height="60" as="geometry" />
        </mxCell>
        <mxCell id="Sv3YUqrAasHjxWlkc90t-28" style="edgeStyle=orthogonalEdgeStyle;rounded=0;orthogonalLoop=1;jettySize=auto;html=1;exitX=0.5;exitY=1;exitDx=0;exitDy=0;entryX=0.5;entryY=0;entryDx=0;entryDy=0;fillColor=#dae8fc;strokeColor=#6c8ebf;fontSize=14;" edge="1" parent="1" source="Sv3YUqrAasHjxWlkc90t-11" target="Sv3YUqrAasHjxWlkc90t-14">
          <mxGeometry relative="1" as="geometry" />
        </mxCell>
        <mxCell id="Sv3YUqrAasHjxWlkc90t-11" value="补偿登记" style="rounded=1;whiteSpace=wrap;html=1;fillColor=#dae8fc;strokeColor=#6c8ebf;fontSize=14;" vertex="1" parent="1">
          <mxGeometry x="390" y="310" width="120" height="60" as="geometry" />
        </mxCell>
        <mxCell id="Sv3YUqrAasHjxWlkc90t-18" style="edgeStyle=orthogonalEdgeStyle;rounded=0;orthogonalLoop=1;jettySize=auto;html=1;exitX=1;exitY=0.5;exitDx=0;exitDy=0;entryX=0;entryY=0.5;entryDx=0;entryDy=0;fillColor=#dae8fc;strokeColor=#6c8ebf;fontSize=14;" edge="1" parent="1" source="Sv3YUqrAasHjxWlkc90t-14" target="Sv3YUqrAasHjxWlkc90t-17">
          <mxGeometry relative="1" as="geometry" />
        </mxCell>
        <mxCell id="Sv3YUqrAasHjxWlkc90t-20" value="" style="edgeStyle=orthogonalEdgeStyle;rounded=0;orthogonalLoop=1;jettySize=auto;html=1;fillColor=#dae8fc;strokeColor=#6c8ebf;fontSize=14;" edge="1" parent="1" source="Sv3YUqrAasHjxWlkc90t-14" target="Sv3YUqrAasHjxWlkc90t-19">
          <mxGeometry relative="1" as="geometry" />
        </mxCell>
        <mxCell id="Sv3YUqrAasHjxWlkc90t-14" value="招拍挂" style="rounded=1;whiteSpace=wrap;html=1;fillColor=#dae8fc;strokeColor=#6c8ebf;fontSize=14;" vertex="1" parent="1">
          <mxGeometry x="200" y="420" width="120" height="60" as="geometry" />
        </mxCell>
        <mxCell id="Sv3YUqrAasHjxWlkc90t-17" value="土地出让合同" style="rounded=1;whiteSpace=wrap;html=1;fillColor=#dae8fc;strokeColor=#6c8ebf;fontSize=14;" vertex="1" parent="1">
          <mxGeometry x="390" y="420" width="120" height="60" as="geometry" />
        </mxCell>
        <mxCell id="Sv3YUqrAasHjxWlkc90t-22" value="" style="edgeStyle=orthogonalEdgeStyle;rounded=0;orthogonalLoop=1;jettySize=auto;html=1;fillColor=#dae8fc;strokeColor=#6c8ebf;fontSize=14;" edge="1" parent="1" source="Sv3YUqrAasHjxWlkc90t-19" target="Sv3YUqrAasHjxWlkc90t-21">
          <mxGeometry relative="1" as="geometry" />
        </mxCell>
        <mxCell id="Sv3YUqrAasHjxWlkc90t-19" value="建设用地规划许可证" style="rounded=1;whiteSpace=wrap;html=1;fillColor=#dae8fc;strokeColor=#6c8ebf;fontSize=14;" vertex="1" parent="1">
          <mxGeometry x="175" y="510" width="170" height="60" as="geometry" />
        </mxCell>
        <mxCell id="Sv3YUqrAasHjxWlkc90t-24" value="" style="edgeStyle=orthogonalEdgeStyle;rounded=0;orthogonalLoop=1;jettySize=auto;html=1;fillColor=#dae8fc;strokeColor=#6c8ebf;fontSize=14;" edge="1" parent="1" source="Sv3YUqrAasHjxWlkc90t-21" target="Sv3YUqrAasHjxWlkc90t-23">
          <mxGeometry relative="1" as="geometry" />
        </mxCell>
        <mxCell id="Sv3YUqrAasHjxWlkc90t-21" value="土地证" style="rounded=1;whiteSpace=wrap;html=1;fillColor=#dae8fc;strokeColor=#6c8ebf;fontSize=14;" vertex="1" parent="1">
          <mxGeometry x="200" y="600" width="120" height="60" as="geometry" />
        </mxCell>
        <mxCell id="Sv3YUqrAasHjxWlkc90t-26" value="" style="edgeStyle=orthogonalEdgeStyle;rounded=0;orthogonalLoop=1;jettySize=auto;html=1;fillColor=#dae8fc;strokeColor=#6c8ebf;fontSize=14;" edge="1" parent="1" source="Sv3YUqrAasHjxWlkc90t-23" target="Sv3YUqrAasHjxWlkc90t-25">
          <mxGeometry relative="1" as="geometry" />
        </mxCell>
        <mxCell id="Sv3YUqrAasHjxWlkc90t-23" value="建设工程规划许可证" style="rounded=1;whiteSpace=wrap;html=1;fillColor=#dae8fc;strokeColor=#6c8ebf;fontSize=14;" vertex="1" parent="1">
          <mxGeometry x="165" y="690" width="190" height="60" as="geometry" />
        </mxCell>
        <mxCell id="Sv3YUqrAasHjxWlkc90t-25" value="开工证" style="rounded=1;whiteSpace=wrap;html=1;fillColor=#dae8fc;strokeColor=#6c8ebf;fontSize=14;" vertex="1" parent="1">
          <mxGeometry x="200" y="790" width="120" height="60" as="geometry" />
        </mxCell>
      </root>
    </mxGraphModel>
  </diagram>
</mxfile>
